<svg xmlns="http://www.w3.org/2000/svg" style="display: none;">
  
    <symbol id="icon-question-circle" viewBox="0 0 512 512">
      <path d="m293 393l0-55c0-2-1-5-3-6-2-2-4-3-7-3l-54 0c-3 0-5 1-7 3-2 1-3 4-3 6l0 55c0 3 1 5 3 7 2 1 4 2 7 2l54 0c3 0 5-1 7-2 2-2 3-4 3-7z m73-192c0-17-6-32-16-46-11-15-24-26-40-34-16-7-32-11-48-11-47 0-82 20-106 61-3 4-2 8 2 12l38 28c1 1 3 2 5 2 3 0 6-1 7-4 10-13 19-21 25-26 6-4 15-7 24-7 10 0 18 3 25 8 7 5 11 10 11 17 0 7-2 13-6 17-4 4-10 9-20 13-12 5-23 13-33 25-10 11-15 23-15 35l0 11c0 2 1 5 3 6 2 2 4 3 7 3l54 0c3 0 5-1 7-3 2-1 3-4 3-6 0-4 2-9 6-14 4-6 9-11 15-15 6-3 11-6 14-8 4-2 8-5 13-10 6-4 10-9 13-13 3-5 6-11 8-18 3-7 4-14 4-23z m109 55c0 40-9 77-29 110-20 34-46 60-80 80-33 20-70 29-110 29-40 0-77-9-110-29-34-20-60-46-80-80-20-33-29-70-29-110 0-40 9-77 29-110 20-34 46-60 80-80 33-20 70-29 110-29 40 0 77 9 110 29 34 20 60 46 80 80 20 33 29 70 29 110z"/>
    </symbol>
  
    <symbol id="icon-cog" viewBox="0 0 512 512">
      <path d="m329 256c0-20-7-37-21-52-15-14-32-21-52-21-20 0-37 7-52 21-14 15-21 32-21 52 0 20 7 37 21 52 15 14 32 21 52 21 20 0 37-7 52-21 14-15 21-32 21-52z m146-31l0 63c0 3 0 5-2 7-1 2-3 3-6 4l-52 8c-4 10-8 19-12 26 7 9 17 22 31 39 2 2 3 5 3 7 0 3-1 5-3 7-5 7-14 17-28 31-14 13-23 20-27 20-2 0-5-1-7-3l-40-31c-8 5-17 8-26 11-3 26-6 44-8 53-1 6-5 8-10 8l-64 0c-2 0-5 0-7-2-2-2-3-4-3-6l-8-53c-9-3-18-6-26-10l-40 30c-2 2-4 3-7 3-3 0-5-1-7-3-24-22-40-38-47-48-2-2-2-4-2-7 0-2 0-4 2-6 3-4 8-11 14-19 7-9 12-16 16-21-5-9-9-19-12-28l-52-8c-3 0-5-1-6-3-2-2-2-4-2-7l0-63c0-3 0-5 2-7 1-2 3-3 5-4l53-8c3-8 7-17 12-26-8-11-18-24-31-39-2-3-3-5-3-7 0-2 1-4 3-7 5-7 14-17 28-30 14-14 23-21 27-21 2 0 5 1 7 3l40 31c8-5 17-8 26-11 3-26 6-44 8-53 1-6 5-8 10-8l64 0c2 0 5 0 7 2 2 2 3 4 3 6l8 53c9 3 18 6 26 10l40-30c2-2 4-3 7-3 3 0 5 1 7 3 25 23 41 39 47 49 2 1 2 3 2 6 0 2 0 4-2 6-3 4-8 11-14 19-7 9-12 16-16 21 5 9 9 18 12 28l52 8c3 0 5 1 6 3 2 2 2 4 2 7z"/>
    </symbol>
  
</svg>
